<svg width="182" height="225" viewBox="0 0 182 225" fill="none" xmlns="http://www.w3.org/2000/svg">
<g clip-path="url(#clip0_2002_50)">
<path d="M181.925 13.5439H1.07007V223.996H181.925V13.5439Z" fill="white" stroke="#BABABA" stroke-width="0.67" stroke-miterlimit="10"/>
<path d="M62.047 127.063C62.6262 127.063 63.0958 126.606 63.0958 126.042C63.0958 125.478 62.6262 125.021 62.047 125.021C61.4678 125.021 60.9983 125.478 60.9983 126.042C60.9983 126.606 61.4678 127.063 62.047 127.063Z" fill="#CFCFCF"/>
<path d="M90.9946 146.441C112.691 146.441 130.28 145.373 130.28 144.056C130.28 142.738 112.691 141.67 90.9946 141.67C69.298 141.67 51.7095 142.738 51.7095 144.056C51.7095 145.373 69.298 146.441 90.9946 146.441Z" fill="#F2F2F2"/>
<path d="M39.1354 46.2682C39.7146 46.2682 40.1842 45.8111 40.1842 45.2472C40.1842 44.6833 39.7146 44.2262 39.1354 44.2262C38.5562 44.2262 38.0867 44.6833 38.0867 45.2472C38.0867 45.8111 38.5562 46.2682 39.1354 46.2682Z" fill="#CFCFCF"/>
<path d="M56.6964 62.4689C57.2757 62.4689 57.7452 62.0118 57.7452 61.4479C57.7452 60.884 57.2757 60.4269 56.6964 60.4269C56.1172 60.4269 55.6477 60.884 55.6477 61.4479C55.6477 62.0118 56.1172 62.4689 56.6964 62.4689Z" fill="#CFCFCF"/>
<path d="M123.099 132.95C123.678 132.95 124.148 132.492 124.148 131.929C124.148 131.365 123.678 130.908 123.099 130.908C122.52 130.908 122.05 131.365 122.05 131.929C122.05 132.492 122.52 132.95 123.099 132.95Z" fill="#CFCFCF"/>
<path d="M63.56 167.836V169.841H66.09V170.876H63.56V172.921H66.77V173.996H62.21V166.766H66.77V167.836H63.56ZM67.6596 173.996V168.866H68.4146C68.5746 168.866 68.6796 168.941 68.7296 169.091L68.8096 169.471C68.8996 169.371 68.9929 169.28 69.0896 169.196C69.1896 169.113 69.2946 169.041 69.4046 168.981C69.5179 168.921 69.6379 168.875 69.7646 168.841C69.8946 168.805 70.0362 168.786 70.1896 168.786C70.5129 168.786 70.7779 168.875 70.9846 169.051C71.1946 169.225 71.3512 169.456 71.4546 169.746C71.5346 169.576 71.6346 169.431 71.7546 169.311C71.8746 169.188 72.0062 169.088 72.1496 169.011C72.2929 168.935 72.4446 168.878 72.6046 168.841C72.7679 168.805 72.9312 168.786 73.0946 168.786C73.3779 168.786 73.6296 168.83 73.8496 168.916C74.0696 169.003 74.2546 169.13 74.4046 169.296C74.5546 169.463 74.6679 169.666 74.7446 169.906C74.8246 170.146 74.8646 170.421 74.8646 170.731V173.996H73.6296V170.731C73.6296 170.405 73.5579 170.16 73.4146 169.996C73.2712 169.83 73.0612 169.746 72.7846 169.746C72.6579 169.746 72.5396 169.768 72.4296 169.811C72.3229 169.855 72.2279 169.918 72.1446 170.001C72.0646 170.081 72.0012 170.183 71.9546 170.306C71.9079 170.43 71.8846 170.571 71.8846 170.731V173.996H70.6446V170.731C70.6446 170.388 70.5746 170.138 70.4346 169.981C70.2979 169.825 70.0962 169.746 69.8296 169.746C69.6496 169.746 69.4812 169.791 69.3246 169.881C69.1712 169.968 69.0279 170.088 68.8946 170.241V173.996H67.6596ZM77.2735 172.666C77.4135 172.836 77.5651 172.956 77.7285 173.026C77.8951 173.096 78.0751 173.131 78.2685 173.131C78.4551 173.131 78.6235 173.096 78.7735 173.026C78.9235 172.956 79.0501 172.85 79.1535 172.706C79.2601 172.563 79.3418 172.383 79.3985 172.166C79.4551 171.946 79.4835 171.688 79.4835 171.391C79.4835 171.091 79.4585 170.838 79.4085 170.631C79.3618 170.421 79.2935 170.251 79.2035 170.121C79.1135 169.991 79.0035 169.896 78.8735 169.836C78.7468 169.776 78.6018 169.746 78.4385 169.746C78.1818 169.746 77.9635 169.801 77.7835 169.911C77.6035 170.018 77.4335 170.17 77.2735 170.366V172.666ZM77.2085 169.566C77.4185 169.33 77.6568 169.138 77.9235 168.991C78.1901 168.845 78.5035 168.771 78.8635 168.771C79.1435 168.771 79.3985 168.83 79.6285 168.946C79.8618 169.063 80.0618 169.233 80.2285 169.456C80.3985 169.676 80.5285 169.95 80.6185 170.276C80.7118 170.6 80.7585 170.971 80.7585 171.391C80.7585 171.775 80.7068 172.13 80.6035 172.456C80.5001 172.783 80.3518 173.066 80.1585 173.306C79.9685 173.546 79.7368 173.735 79.4635 173.871C79.1935 174.005 78.8901 174.071 78.5535 174.071C78.2668 174.071 78.0218 174.028 77.8185 173.941C77.6151 173.851 77.4335 173.728 77.2735 173.571V175.671H76.0385V168.866H76.7935C76.9535 168.866 77.0585 168.941 77.1085 169.091L77.2085 169.566ZM83.3637 174.076C82.917 174.076 82.5737 173.951 82.3337 173.701C82.097 173.448 81.9787 173.1 81.9787 172.656V169.791H81.4537C81.387 169.791 81.3304 169.77 81.2837 169.726C81.237 169.683 81.2137 169.618 81.2137 169.531V169.041L82.0387 168.906L82.2987 167.506C82.3154 167.44 82.347 167.388 82.3937 167.351C82.4404 167.315 82.5004 167.296 82.5737 167.296H83.2137V168.911H84.5837V169.791H83.2137V172.571C83.2137 172.731 83.252 172.856 83.3287 172.946C83.4087 173.036 83.517 173.081 83.6537 173.081C83.7304 173.081 83.7937 173.073 83.8437 173.056C83.897 173.036 83.942 173.016 83.9787 172.996C84.0187 172.976 84.0537 172.958 84.0837 172.941C84.1137 172.921 84.1437 172.911 84.1737 172.911C84.2104 172.911 84.2404 172.921 84.2637 172.941C84.287 172.958 84.312 172.985 84.3387 173.021L84.7087 173.621C84.5287 173.771 84.322 173.885 84.0887 173.961C83.8554 174.038 83.6137 174.076 83.3637 174.076ZM90.0344 168.866L87.2394 175.406C87.2027 175.493 87.1544 175.558 87.0944 175.601C87.0377 175.648 86.9494 175.671 86.8294 175.671H85.9094L86.8694 173.611L84.7944 168.866H85.8794C85.9761 168.866 86.0511 168.89 86.1044 168.936C86.1611 168.983 86.2027 169.036 86.2294 169.096L87.3194 171.756C87.3561 171.846 87.3861 171.936 87.4094 172.026C87.4361 172.116 87.4611 172.208 87.4844 172.301C87.5144 172.208 87.5444 172.116 87.5744 172.026C87.6044 171.933 87.6377 171.841 87.6744 171.751L88.7044 169.096C88.7311 169.03 88.7744 168.975 88.8344 168.931C88.8977 168.888 88.9677 168.866 89.0444 168.866H90.0344ZM97.9856 172.291C98.0589 172.291 98.1239 172.32 98.1806 172.376L98.7106 172.951C98.4172 173.315 98.0556 173.593 97.6256 173.786C97.1989 173.98 96.6856 174.076 96.0856 174.076C95.5489 174.076 95.0656 173.985 94.6356 173.801C94.2089 173.618 93.8439 173.363 93.5406 173.036C93.2372 172.71 93.0039 172.32 92.8406 171.866C92.6806 171.413 92.6006 170.918 92.6006 170.381C92.6006 169.838 92.6872 169.341 92.8606 168.891C93.0339 168.438 93.2772 168.048 93.5906 167.721C93.9072 167.395 94.2839 167.141 94.7206 166.961C95.1572 166.778 95.6406 166.686 96.1706 166.686C96.6972 166.686 97.1639 166.773 97.5706 166.946C97.9806 167.12 98.3289 167.346 98.6156 167.626L98.1656 168.251C98.1389 168.291 98.1039 168.326 98.0606 168.356C98.0206 168.386 97.9639 168.401 97.8906 168.401C97.8406 168.401 97.7889 168.388 97.7356 168.361C97.6822 168.331 97.6239 168.296 97.5606 168.256C97.4972 168.213 97.4239 168.166 97.3406 168.116C97.2572 168.066 97.1606 168.021 97.0506 167.981C96.9406 167.938 96.8122 167.903 96.6656 167.876C96.5222 167.846 96.3556 167.831 96.1656 167.831C95.8422 167.831 95.5456 167.89 95.2756 168.006C95.0089 168.12 94.7789 168.286 94.5856 168.506C94.3922 168.723 94.2422 168.99 94.1356 169.306C94.0289 169.62 93.9756 169.978 93.9756 170.381C93.9756 170.788 94.0322 171.15 94.1456 171.466C94.2622 171.783 94.4189 172.05 94.6156 172.266C94.8122 172.483 95.0439 172.65 95.3106 172.766C95.5772 172.88 95.8639 172.936 96.1706 172.936C96.3539 172.936 96.5189 172.926 96.6656 172.906C96.8156 172.886 96.9522 172.855 97.0756 172.811C97.2022 172.768 97.3206 172.713 97.4306 172.646C97.5439 172.576 97.6556 172.491 97.7656 172.391C97.7989 172.361 97.8339 172.338 97.8706 172.321C97.9072 172.301 97.9456 172.291 97.9856 172.291ZM102.147 171.806C101.79 171.823 101.49 171.855 101.247 171.901C101.004 171.945 100.809 172.001 100.662 172.071C100.515 172.141 100.41 172.223 100.347 172.316C100.284 172.41 100.252 172.511 100.252 172.621C100.252 172.838 100.315 172.993 100.442 173.086C100.572 173.18 100.74 173.226 100.947 173.226C101.2 173.226 101.419 173.181 101.602 173.091C101.789 172.998 101.97 172.858 102.147 172.671V171.806ZM99.3169 169.581C99.9069 169.041 100.617 168.771 101.447 168.771C101.747 168.771 102.015 168.821 102.252 168.921C102.489 169.018 102.689 169.155 102.852 169.331C103.015 169.505 103.139 169.713 103.222 169.956C103.309 170.2 103.352 170.466 103.352 170.756V173.996H102.792C102.675 173.996 102.585 173.98 102.522 173.946C102.459 173.91 102.409 173.838 102.372 173.731L102.262 173.361C102.132 173.478 102.005 173.581 101.882 173.671C101.759 173.758 101.63 173.831 101.497 173.891C101.364 173.951 101.22 173.996 101.067 174.026C100.917 174.06 100.75 174.076 100.567 174.076C100.35 174.076 100.15 174.048 99.9669 173.991C99.7836 173.931 99.6252 173.843 99.4919 173.726C99.3586 173.61 99.2552 173.465 99.1819 173.291C99.1086 173.118 99.0719 172.916 99.0719 172.686C99.0719 172.556 99.0936 172.428 99.1369 172.301C99.1802 172.171 99.2502 172.048 99.3469 171.931C99.4469 171.815 99.5752 171.705 99.7319 171.601C99.8886 171.498 100.08 171.408 100.307 171.331C100.537 171.255 100.804 171.193 101.107 171.146C101.41 171.096 101.757 171.066 102.147 171.056V170.756C102.147 170.413 102.074 170.16 101.927 169.996C101.78 169.83 101.569 169.746 101.292 169.746C101.092 169.746 100.925 169.77 100.792 169.816C100.662 169.863 100.547 169.916 100.447 169.976C100.347 170.033 100.255 170.085 100.172 170.131C100.092 170.178 100.002 170.201 99.9019 170.201C99.8152 170.201 99.7419 170.18 99.6819 170.136C99.6219 170.09 99.5736 170.036 99.5369 169.976L99.3169 169.581ZM105.68 169.756C105.84 169.45 106.03 169.21 106.25 169.036C106.47 168.86 106.73 168.771 107.03 168.771C107.267 168.771 107.457 168.823 107.6 168.926L107.52 169.851C107.503 169.911 107.478 169.955 107.445 169.981C107.415 170.005 107.373 170.016 107.32 170.016C107.27 170.016 107.195 170.008 107.095 169.991C106.998 169.975 106.903 169.966 106.81 169.966C106.673 169.966 106.552 169.986 106.445 170.026C106.338 170.066 106.242 170.125 106.155 170.201C106.072 170.275 105.997 170.365 105.93 170.471C105.867 170.578 105.807 170.7 105.75 170.836V173.996H104.515V168.866H105.24C105.367 168.866 105.455 168.89 105.505 168.936C105.555 168.98 105.588 169.06 105.605 169.176L105.68 169.756ZM109.955 174.076C109.509 174.076 109.165 173.951 108.925 173.701C108.689 173.448 108.57 173.1 108.57 172.656V169.791H108.045C107.979 169.791 107.922 169.77 107.875 169.726C107.829 169.683 107.805 169.618 107.805 169.531V169.041L108.63 168.906L108.89 167.506C108.907 167.44 108.939 167.388 108.985 167.351C109.032 167.315 109.092 167.296 109.165 167.296H109.805V168.911H111.175V169.791H109.805V172.571C109.805 172.731 109.844 172.856 109.92 172.946C110 173.036 110.109 173.081 110.245 173.081C110.322 173.081 110.385 173.073 110.435 173.056C110.489 173.036 110.534 173.016 110.57 172.996C110.61 172.976 110.645 172.958 110.675 172.941C110.705 172.921 110.735 172.911 110.765 172.911C110.802 172.911 110.832 172.921 110.855 172.941C110.879 172.958 110.904 172.985 110.93 173.021L111.3 173.621C111.12 173.771 110.914 173.885 110.68 173.961C110.447 174.038 110.205 174.076 109.955 174.076Z" fill="#939090"/>
<path d="M31.0247 186.812H30.3784L32.2478 181.721H32.8841L34.7534 186.812H34.1071L32.5858 182.526H32.5461L31.0247 186.812ZM31.2634 184.823H33.8685V185.37H31.2634V184.823ZM36.9086 186.891C36.5904 186.891 36.3095 186.811 36.0659 186.65C35.8223 186.488 35.6318 186.259 35.4942 185.964C35.3567 185.667 35.2879 185.317 35.2879 184.912C35.2879 184.511 35.3567 184.163 35.4942 183.868C35.6318 183.573 35.8232 183.346 36.0684 183.185C36.3137 183.024 36.5971 182.944 36.9186 182.944C37.1671 182.944 37.3635 182.985 37.5077 183.068C37.6535 183.149 37.7646 183.242 37.8408 183.346C37.9187 183.449 37.9792 183.534 38.0223 183.6H38.072V181.721H38.6586V186.812H38.0919V186.225H38.0223C37.9792 186.295 37.9179 186.382 37.8383 186.488C37.7588 186.593 37.6452 186.687 37.4978 186.769C37.3503 186.851 37.1539 186.891 36.9086 186.891ZM36.9882 186.364C37.2235 186.364 37.4224 186.303 37.5848 186.18C37.7472 186.056 37.8706 185.884 37.9551 185.666C38.0397 185.445 38.0819 185.191 38.0819 184.903C38.0819 184.618 38.0405 184.368 37.9576 184.154C37.8748 183.939 37.7521 183.772 37.5897 183.652C37.4273 183.531 37.2268 183.471 36.9882 183.471C36.7396 183.471 36.5324 183.535 36.3667 183.662C36.2027 183.788 36.0792 183.96 35.9963 184.177C35.9151 184.392 35.8745 184.634 35.8745 184.903C35.8745 185.174 35.916 185.421 35.9988 185.643C36.0833 185.864 36.2076 186.039 36.3717 186.17C36.5374 186.3 36.7429 186.364 36.9882 186.364ZM41.2563 186.891C40.9381 186.891 40.6572 186.811 40.4136 186.65C40.17 186.488 39.9794 186.259 39.8419 185.964C39.7043 185.667 39.6355 185.317 39.6355 184.912C39.6355 184.511 39.7043 184.163 39.8419 183.868C39.9794 183.573 40.1708 183.346 40.4161 183.185C40.6613 183.024 40.9447 182.944 41.2662 182.944C41.5148 182.944 41.7112 182.985 41.8554 183.068C42.0012 183.149 42.1122 183.242 42.1885 183.346C42.2663 183.449 42.3268 183.534 42.3699 183.6H42.4196V181.721H43.0063V186.812H42.4395V186.225H42.3699C42.3268 186.295 42.2655 186.382 42.186 186.488C42.1064 186.593 41.9929 186.687 41.8454 186.769C41.6979 186.851 41.5015 186.891 41.2563 186.891ZM41.3358 186.364C41.5711 186.364 41.77 186.303 41.9324 186.18C42.0948 186.056 42.2183 185.884 42.3028 185.666C42.3873 185.445 42.4296 185.191 42.4296 184.903C42.4296 184.618 42.3881 184.368 42.3053 184.154C42.2224 183.939 42.0998 183.772 41.9374 183.652C41.775 183.531 41.5745 183.471 41.3358 183.471C41.0872 183.471 40.8801 183.535 40.7144 183.662C40.5503 183.788 40.4269 183.96 40.344 184.177C40.2628 184.392 40.2222 184.634 40.2222 184.903C40.2222 185.174 40.2636 185.421 40.3465 185.643C40.431 185.864 40.5553 186.039 40.7193 186.17C40.8851 186.3 41.0906 186.364 41.3358 186.364ZM48.8355 183.849L48.3085 183.998C48.2753 183.91 48.2265 183.825 48.1618 183.742C48.0988 183.657 48.0127 183.588 47.9033 183.533C47.7939 183.478 47.6539 183.451 47.4832 183.451C47.2495 183.451 47.0548 183.505 46.899 183.612C46.7449 183.718 46.6679 183.854 46.6679 184.018C46.6679 184.163 46.7209 184.279 46.8269 184.363C46.933 184.448 47.0987 184.518 47.3241 184.574L47.8909 184.714C48.2323 184.796 48.4866 184.923 48.654 185.094C48.8214 185.263 48.9051 185.481 48.9051 185.748C48.9051 185.966 48.8421 186.162 48.7162 186.334C48.5919 186.507 48.4179 186.643 48.1941 186.742C47.9704 186.841 47.7102 186.891 47.4136 186.891C47.0242 186.891 46.7018 186.807 46.4466 186.638C46.1914 186.469 46.0298 186.222 45.9619 185.897L46.5187 185.758C46.5717 185.963 46.672 186.117 46.8195 186.22C46.9686 186.323 47.1634 186.374 47.4037 186.374C47.6771 186.374 47.8942 186.316 48.0549 186.2C48.2173 186.082 48.2985 185.942 48.2985 185.778C48.2985 185.645 48.2521 185.534 48.1593 185.444C48.0665 185.353 47.924 185.285 47.7318 185.241L47.0954 185.091C46.7457 185.009 46.4889 184.88 46.3248 184.706C46.1624 184.531 46.0812 184.311 46.0812 184.047C46.0812 183.832 46.1417 183.641 46.2627 183.476C46.3853 183.31 46.5519 183.18 46.7623 183.085C46.9744 182.991 47.2147 182.944 47.4832 182.944C47.861 182.944 48.1577 183.027 48.3731 183.192C48.5902 183.358 48.7443 183.577 48.8355 183.849ZM51.3393 186.891C50.9946 186.891 50.6922 186.809 50.432 186.645C50.1735 186.481 49.9713 186.252 49.8254 185.957C49.6813 185.662 49.6092 185.317 49.6092 184.922C49.6092 184.525 49.6813 184.178 49.8254 183.881C49.9713 183.584 50.1735 183.354 50.432 183.19C50.6922 183.026 50.9946 182.944 51.3393 182.944C51.684 182.944 51.9856 183.026 52.2441 183.19C52.5043 183.354 52.7065 183.584 52.8507 183.881C52.9965 184.178 53.0694 184.525 53.0694 184.922C53.0694 185.317 52.9965 185.662 52.8507 185.957C52.7065 186.252 52.5043 186.481 52.2441 186.645C51.9856 186.809 51.684 186.891 51.3393 186.891ZM51.3393 186.364C51.6011 186.364 51.8166 186.297 51.9856 186.163C52.1546 186.029 52.2797 185.852 52.361 185.633C52.4422 185.415 52.4828 185.178 52.4828 184.922C52.4828 184.667 52.4422 184.429 52.361 184.209C52.2797 183.989 52.1546 183.81 51.9856 183.675C51.8166 183.539 51.6011 183.471 51.3393 183.471C51.0775 183.471 50.862 183.539 50.693 183.675C50.5239 183.81 50.3988 183.989 50.3176 184.209C50.2364 184.429 50.1958 184.667 50.1958 184.922C50.1958 185.178 50.2364 185.415 50.3176 185.633C50.3988 185.852 50.5239 186.029 50.693 186.163C50.862 186.297 51.0775 186.364 51.3393 186.364ZM53.9649 186.812V182.993H54.5317V183.59H54.5814C54.6609 183.386 54.7894 183.228 54.9667 183.115C55.144 183.001 55.357 182.944 55.6055 182.944C55.8574 182.944 56.0671 183.001 56.2344 183.115C56.4035 183.228 56.5352 183.386 56.6297 183.59H56.6695C56.7672 183.393 56.9139 183.236 57.1094 183.12C57.305 183.003 57.5395 182.944 57.8129 182.944C58.1543 182.944 58.4335 183.051 58.6506 183.264C58.8677 183.477 58.9763 183.807 58.9763 184.256V186.812H58.3896V184.256C58.3896 183.975 58.3126 183.773 58.1584 183.652C58.0043 183.531 57.8229 183.471 57.6141 183.471C57.3456 183.471 57.1376 183.552 56.9901 183.714C56.8426 183.875 56.7689 184.079 56.7689 184.326V186.812H56.1723V184.197C56.1723 183.979 56.1019 183.805 55.961 183.672C55.8201 183.538 55.6387 183.471 55.4166 183.471C55.2642 183.471 55.1216 183.511 54.9891 183.593C54.8581 183.674 54.7521 183.786 54.6709 183.931C54.5913 184.073 54.5516 184.238 54.5516 184.425V186.812H53.9649ZM61.6497 186.891C61.2818 186.891 60.9645 186.81 60.6977 186.648C60.4325 186.484 60.2279 186.255 60.0837 185.962C59.9412 185.667 59.8699 185.323 59.8699 184.932C59.8699 184.541 59.9412 184.197 60.0837 183.898C60.2279 183.598 60.4284 183.365 60.6853 183.197C60.9438 183.028 61.2454 182.944 61.5901 182.944C61.789 182.944 61.9853 182.977 62.1792 183.043C62.3731 183.109 62.5496 183.217 62.7087 183.366C62.8678 183.514 62.9946 183.709 63.089 183.953C63.1835 184.197 63.2307 184.497 63.2307 184.853V185.101H60.2875V184.594H62.6341C62.6341 184.379 62.591 184.187 62.5049 184.018C62.4203 183.849 62.2994 183.715 62.1419 183.617C61.9862 183.52 61.8022 183.471 61.5901 183.471C61.3564 183.471 61.1542 183.529 60.9836 183.645C60.8145 183.759 60.6844 183.908 60.5933 184.092C60.5021 184.276 60.4566 184.473 60.4566 184.684V185.022C60.4566 185.31 60.5063 185.555 60.6057 185.755C60.7068 185.954 60.8468 186.106 61.0258 186.21C61.2048 186.313 61.4128 186.364 61.6497 186.364C61.8039 186.364 61.9431 186.343 62.0674 186.3C62.1933 186.255 62.3019 186.189 62.393 186.101C62.4841 186.011 62.5546 185.9 62.6043 185.768L63.1711 185.927C63.1114 186.119 63.0111 186.288 62.8703 186.434C62.7294 186.578 62.5554 186.691 62.3483 186.772C62.1411 186.851 61.9083 186.891 61.6497 186.891ZM66.0919 186.812V182.993H66.6785V186.812H66.0919ZM66.3902 182.357C66.2758 182.357 66.1772 182.318 66.0943 182.24C66.0131 182.162 65.9725 182.069 65.9725 181.959C65.9725 181.85 66.0131 181.756 66.0943 181.678C66.1772 181.601 66.2758 181.562 66.3902 181.562C66.5045 181.562 66.6023 181.601 66.6835 181.678C66.7663 181.756 66.8078 181.85 66.8078 181.959C66.8078 182.069 66.7663 182.162 66.6835 182.24C66.6023 182.318 66.5045 182.357 66.3902 182.357ZM69.4135 182.993V183.491H67.4348V182.993H69.4135ZM68.0115 182.079H68.5982V185.718C68.5982 185.884 68.6222 186.008 68.6703 186.091C68.72 186.172 68.7829 186.227 68.8592 186.255C68.9371 186.281 69.0191 186.295 69.1053 186.295C69.1699 186.295 69.2229 186.291 69.2644 186.285C69.3058 186.276 69.3389 186.27 69.3638 186.265L69.4831 186.792C69.4433 186.807 69.3878 186.822 69.3166 186.837C69.2453 186.853 69.155 186.861 69.0456 186.861C68.8799 186.861 68.7175 186.826 68.5584 186.754C68.401 186.683 68.27 186.575 68.1656 186.429C68.0629 186.283 68.0115 186.099 68.0115 185.877V182.079ZM71.8558 186.891C71.4879 186.891 71.1706 186.81 70.9037 186.648C70.6386 186.484 70.4339 186.255 70.2898 185.962C70.1472 185.667 70.076 185.323 70.076 184.932C70.076 184.541 70.1472 184.197 70.2898 183.898C70.4339 183.598 70.6344 183.365 70.8913 183.197C71.1498 183.028 71.4514 182.944 71.7961 182.944C71.995 182.944 72.1914 182.977 72.3853 183.043C72.5792 183.109 72.7557 183.217 72.9148 183.366C73.0738 183.514 73.2006 183.709 73.2951 183.953C73.3895 184.197 73.4368 184.497 73.4368 184.853V185.101H70.4936V184.594H72.8402C72.8402 184.379 72.7971 184.187 72.7109 184.018C72.6264 183.849 72.5054 183.715 72.348 183.617C72.1922 183.52 72.0083 183.471 71.7961 183.471C71.5625 183.471 71.3603 183.529 71.1896 183.645C71.0206 183.759 70.8905 183.908 70.7993 184.092C70.7082 184.276 70.6626 184.473 70.6626 184.684V185.022C70.6626 185.31 70.7123 185.555 70.8118 185.755C70.9129 185.954 71.0529 186.106 71.2319 186.21C71.4108 186.313 71.6188 186.364 71.8558 186.364C72.0099 186.364 72.1491 186.343 72.2734 186.3C72.3994 186.255 72.5079 186.189 72.5991 186.101C72.6902 186.011 72.7606 185.9 72.8103 185.768L73.3771 185.927C73.3174 186.119 73.2172 186.288 73.0763 186.434C72.9355 186.578 72.7615 186.691 72.5543 186.772C72.3472 186.851 72.1143 186.891 71.8558 186.891ZM74.3292 186.812V182.993H74.8959V183.59H74.9456C75.0252 183.386 75.1536 183.228 75.3309 183.115C75.5083 183.001 75.7212 182.944 75.9698 182.944C76.2217 182.944 76.4313 183.001 76.5987 183.115C76.7677 183.228 76.8995 183.386 76.9939 183.59H77.0337C77.1315 183.393 77.2782 183.236 77.4737 183.12C77.6692 183.003 77.9037 182.944 78.1772 182.944C78.5186 182.944 78.7978 183.051 79.0149 183.264C79.232 183.477 79.3405 183.807 79.3405 184.256V186.812H78.7539V184.256C78.7539 183.975 78.6768 183.773 78.5227 183.652C78.3686 183.531 78.1871 183.471 77.9783 183.471C77.7099 183.471 77.5019 183.552 77.3544 183.714C77.2069 183.875 77.1331 184.079 77.1331 184.326V186.812H76.5366V184.197C76.5366 183.979 76.4661 183.805 76.3253 183.672C76.1844 183.538 76.0029 183.471 75.7809 183.471C75.6284 183.471 75.4859 183.511 75.3533 183.593C75.2224 183.674 75.1163 183.786 75.0351 183.931C74.9556 184.073 74.9158 184.238 74.9158 184.425V186.812H74.3292ZM83.1177 183.849L82.5907 183.998C82.5576 183.91 82.5087 183.825 82.444 183.742C82.3811 183.657 82.2949 183.588 82.1855 183.533C82.0761 183.478 81.9361 183.451 81.7654 183.451C81.5318 183.451 81.337 183.505 81.1813 183.612C81.0271 183.718 80.9501 183.854 80.9501 184.018C80.9501 184.163 81.0031 184.279 81.1092 184.363C81.2152 184.448 81.381 184.518 81.6063 184.574L82.1731 184.714C82.5145 184.796 82.7689 184.923 82.9362 185.094C83.1036 185.263 83.1873 185.481 83.1873 185.748C83.1873 185.966 83.1243 186.162 82.9984 186.334C82.8741 186.507 82.7001 186.643 82.4764 186.742C82.2526 186.841 81.9925 186.891 81.6958 186.891C81.3064 186.891 80.9841 186.807 80.7288 186.638C80.4736 186.469 80.3121 186.222 80.2441 185.897L80.8009 185.758C80.854 185.963 80.9542 186.117 81.1017 186.22C81.2509 186.323 81.4456 186.374 81.6859 186.374C81.9593 186.374 82.1764 186.316 82.3372 186.2C82.4996 186.082 82.5808 185.942 82.5808 185.778C82.5808 185.645 82.5344 185.534 82.4416 185.444C82.3488 185.353 82.2062 185.285 82.014 185.241L81.3776 185.091C81.028 185.009 80.7711 184.88 80.607 184.706C80.4446 184.531 80.3634 184.311 80.3634 184.047C80.3634 183.832 80.4239 183.641 80.5449 183.476C80.6675 183.31 80.8341 183.18 81.0445 183.085C81.2567 182.991 81.497 182.944 81.7654 182.944C82.1433 182.944 82.4399 183.027 82.6553 183.192C82.8724 183.358 83.0266 183.577 83.1177 183.849ZM87.6996 182.993V183.491H85.7209V182.993H87.6996ZM86.2977 182.079H86.8843V185.718C86.8843 185.884 86.9083 186.008 86.9564 186.091C87.0061 186.172 87.0691 186.227 87.1453 186.255C87.2232 186.281 87.3052 186.295 87.3914 186.295C87.456 186.295 87.5091 186.291 87.5505 186.285C87.5919 186.276 87.6251 186.27 87.6499 186.265L87.7692 186.792C87.7295 186.807 87.674 186.822 87.6027 186.837C87.5314 186.853 87.4411 186.861 87.3317 186.861C87.166 186.861 87.0036 186.826 86.8445 186.754C86.6871 186.683 86.5562 186.575 86.4518 186.429C86.349 186.283 86.2977 186.099 86.2977 185.877V182.079ZM90.0922 186.891C89.7475 186.891 89.4451 186.809 89.1849 186.645C88.9264 186.481 88.7242 186.252 88.5784 185.957C88.4342 185.662 88.3621 185.317 88.3621 184.922C88.3621 184.525 88.4342 184.178 88.5784 183.881C88.7242 183.584 88.9264 183.354 89.1849 183.19C89.4451 183.026 89.7475 182.944 90.0922 182.944C90.4369 182.944 90.7385 183.026 90.997 183.19C91.2572 183.354 91.4594 183.584 91.6036 183.881C91.7494 184.178 91.8223 184.525 91.8223 184.922C91.8223 185.317 91.7494 185.662 91.6036 185.957C91.4594 186.252 91.2572 186.481 90.997 186.645C90.7385 186.809 90.4369 186.891 90.0922 186.891ZM90.0922 186.364C90.3541 186.364 90.5695 186.297 90.7385 186.163C90.9076 186.029 91.0327 185.852 91.1139 185.633C91.1951 185.415 91.2357 185.178 91.2357 184.922C91.2357 184.667 91.1951 184.429 91.1139 184.209C91.0327 183.989 90.9076 183.81 90.7385 183.675C90.5695 183.539 90.3541 183.471 90.0922 183.471C89.8304 183.471 89.6149 183.539 89.4459 183.675C89.2769 183.81 89.1518 183.989 89.0706 184.209C88.9894 184.429 88.9488 184.667 88.9488 184.922C88.9488 185.178 88.9894 185.415 89.0706 185.633C89.1518 185.852 89.2769 186.029 89.4459 186.163C89.6149 186.297 89.8304 186.364 90.0922 186.364ZM96.2278 188.323C95.9444 188.323 95.7008 188.287 95.497 188.214C95.2931 188.142 95.1233 188.048 94.9874 187.93C94.8531 187.814 94.7462 187.69 94.6667 187.557L95.134 187.229C95.1871 187.299 95.2542 187.378 95.3354 187.468C95.4166 187.559 95.5276 187.638 95.6685 187.704C95.811 187.772 95.9974 187.806 96.2278 187.806C96.536 187.806 96.7904 187.731 96.9909 187.582C97.1914 187.433 97.2917 187.199 97.2917 186.881V186.106H97.242C97.1989 186.175 97.1376 186.261 97.058 186.364C96.9802 186.465 96.8675 186.556 96.72 186.635C96.5741 186.713 96.3769 186.752 96.1284 186.752C95.8201 186.752 95.5434 186.679 95.2981 186.533C95.0545 186.387 94.8614 186.175 94.7189 185.897C94.578 185.618 94.5076 185.28 94.5076 184.883C94.5076 184.492 94.5764 184.151 94.7139 183.861C94.8515 183.569 95.0429 183.344 95.2882 183.185C95.5334 183.024 95.8168 182.944 96.1383 182.944C96.3869 182.944 96.5841 182.985 96.7299 183.068C96.8774 183.149 96.9901 183.242 97.068 183.346C97.1475 183.449 97.2088 183.534 97.2519 183.6H97.3116V182.993H97.8784V186.921C97.8784 187.249 97.8038 187.516 97.6546 187.721C97.5071 187.929 97.3083 188.08 97.058 188.176C96.8095 188.274 96.5327 188.323 96.2278 188.323ZM96.2079 186.225C96.4432 186.225 96.6421 186.171 96.8045 186.063C96.9669 185.956 97.0904 185.801 97.1749 185.599C97.2594 185.396 97.3016 185.154 97.3016 184.873C97.3016 184.598 97.2602 184.355 97.1774 184.144C97.0945 183.934 96.9719 183.769 96.8095 183.65C96.6471 183.53 96.4465 183.471 96.2079 183.471C95.9593 183.471 95.7522 183.534 95.5864 183.66C95.4224 183.786 95.2989 183.955 95.2161 184.167C95.1349 184.379 95.0943 184.614 95.0943 184.873C95.0943 185.138 95.1357 185.372 95.2186 185.576C95.3031 185.778 95.4274 185.937 95.5914 186.053C95.7571 186.168 95.9626 186.225 96.2079 186.225ZM100.553 186.891C100.185 186.891 99.8678 186.81 99.601 186.648C99.3359 186.484 99.1312 186.255 98.987 185.962C98.8445 185.667 98.7732 185.323 98.7732 184.932C98.7732 184.541 98.8445 184.197 98.987 183.898C99.1312 183.598 99.3317 183.365 99.5886 183.197C99.8471 183.028 100.149 182.944 100.493 182.944C100.692 182.944 100.889 182.977 101.083 183.043C101.276 183.109 101.453 183.217 101.612 183.366C101.771 183.514 101.898 183.709 101.992 183.953C102.087 184.197 102.134 184.497 102.134 184.853V185.101H99.1909V184.594H101.537C101.537 184.379 101.494 184.187 101.408 184.018C101.324 183.849 101.203 183.715 101.045 183.617C100.889 183.52 100.706 183.471 100.493 183.471C100.26 183.471 100.058 183.529 99.8869 183.645C99.7178 183.759 99.5878 183.908 99.4966 184.092C99.4055 184.276 99.3599 184.473 99.3599 184.684V185.022C99.3599 185.31 99.4096 185.555 99.509 185.755C99.6101 185.954 99.7502 186.106 99.9291 186.21C100.108 186.313 100.316 186.364 100.553 186.364C100.707 186.364 100.846 186.343 100.971 186.3C101.097 186.255 101.205 186.189 101.296 186.101C101.387 186.011 101.458 185.9 101.508 185.768L102.074 185.927C102.015 186.119 101.914 186.288 101.774 186.434C101.633 186.578 101.459 186.691 101.252 186.772C101.044 186.851 100.812 186.891 100.553 186.891ZM104.687 182.993V183.491H102.708V182.993H104.687ZM103.285 182.079H103.872V185.718C103.872 185.884 103.896 186.008 103.944 186.091C103.993 186.172 104.056 186.227 104.133 186.255C104.211 186.281 104.293 186.295 104.379 186.295C104.443 186.295 104.496 186.291 104.538 186.285C104.579 186.276 104.612 186.27 104.637 186.265L104.757 186.792C104.717 186.807 104.661 186.822 104.59 186.837C104.519 186.853 104.428 186.861 104.319 186.861C104.153 186.861 103.991 186.826 103.832 186.754C103.674 186.683 103.543 186.575 103.439 186.429C103.336 186.283 103.285 186.099 103.285 185.877V182.079ZM110.243 183.849L109.716 183.998C109.683 183.91 109.634 183.825 109.569 183.742C109.506 183.657 109.42 183.588 109.311 183.533C109.201 183.478 109.061 183.451 108.89 183.451C108.657 183.451 108.462 183.505 108.306 183.612C108.152 183.718 108.075 183.854 108.075 184.018C108.075 184.163 108.128 184.279 108.234 184.363C108.34 184.448 108.506 184.518 108.731 184.574L109.298 184.714C109.639 184.796 109.894 184.923 110.061 185.094C110.229 185.263 110.312 185.481 110.312 185.748C110.312 185.966 110.249 186.162 110.123 186.334C109.999 186.507 109.825 186.643 109.601 186.742C109.378 186.841 109.117 186.891 108.821 186.891C108.431 186.891 108.109 186.807 107.854 186.638C107.599 186.469 107.437 186.222 107.369 185.897L107.926 185.758C107.979 185.963 108.079 186.117 108.227 186.22C108.376 186.323 108.571 186.374 108.811 186.374C109.084 186.374 109.301 186.316 109.462 186.2C109.625 186.082 109.706 185.942 109.706 185.778C109.706 185.645 109.659 185.534 109.567 185.444C109.474 185.353 109.331 185.285 109.139 185.241L108.503 185.091C108.153 185.009 107.896 184.88 107.732 184.706C107.57 184.531 107.488 184.311 107.488 184.047C107.488 183.832 107.549 183.641 107.67 183.476C107.793 183.31 107.959 183.18 108.17 183.085C108.382 182.991 108.622 182.944 108.89 182.944C109.268 182.944 109.565 183.027 109.78 183.192C109.997 183.358 110.152 183.577 110.243 183.849ZM112.856 182.993V183.491H110.877V182.993H112.856ZM111.454 182.079H112.041V185.718C112.041 185.884 112.065 186.008 112.113 186.091C112.162 186.172 112.225 186.227 112.302 186.255C112.379 186.281 112.461 186.295 112.548 186.295C112.612 186.295 112.665 186.291 112.707 186.285C112.748 186.276 112.781 186.27 112.806 186.265L112.925 186.792C112.886 186.807 112.83 186.822 112.759 186.837C112.688 186.853 112.597 186.861 112.488 186.861C112.322 186.861 112.16 186.826 112.001 186.754C111.843 186.683 111.712 186.575 111.608 186.429C111.505 186.283 111.454 186.099 111.454 185.877V182.079ZM114.862 186.901C114.62 186.901 114.4 186.856 114.203 186.764C114.006 186.672 113.849 186.538 113.733 186.364C113.617 186.189 113.559 185.976 113.559 185.728C113.559 185.509 113.602 185.332 113.689 185.196C113.775 185.058 113.89 184.951 114.034 184.873C114.178 184.795 114.337 184.737 114.511 184.699C114.687 184.659 114.864 184.627 115.041 184.604C115.273 184.574 115.461 184.552 115.605 184.537C115.751 184.521 115.857 184.493 115.923 184.455C115.991 184.417 116.025 184.351 116.025 184.256V184.236C116.025 183.991 115.958 183.801 115.824 183.665C115.691 183.529 115.49 183.461 115.22 183.461C114.94 183.461 114.72 183.522 114.561 183.645C114.402 183.767 114.29 183.898 114.226 184.037L113.669 183.839C113.768 183.607 113.901 183.426 114.066 183.297C114.234 183.166 114.416 183.075 114.613 183.023C114.812 182.97 115.008 182.944 115.2 182.944C115.323 182.944 115.463 182.959 115.623 182.988C115.783 183.017 115.938 183.075 116.087 183.165C116.238 183.254 116.363 183.39 116.463 183.57C116.562 183.751 116.612 183.993 116.612 184.296V186.812H116.025V186.295H115.995C115.956 186.377 115.889 186.466 115.797 186.561C115.704 186.655 115.58 186.735 115.426 186.802C115.272 186.868 115.084 186.901 114.862 186.901ZM114.951 186.374C115.183 186.374 115.379 186.329 115.538 186.237C115.699 186.146 115.82 186.029 115.901 185.884C115.984 185.74 116.025 185.589 116.025 185.43V184.893C116 184.922 115.946 184.95 115.861 184.975C115.778 184.998 115.682 185.019 115.573 185.037C115.465 185.053 115.36 185.068 115.257 185.082C115.156 185.093 115.074 185.103 115.011 185.111C114.859 185.131 114.716 185.164 114.584 185.208C114.453 185.251 114.347 185.317 114.265 185.405C114.186 185.491 114.146 185.609 114.146 185.758C114.146 185.962 114.221 186.116 114.372 186.22C114.525 186.323 114.718 186.374 114.951 186.374ZM117.683 186.812V182.993H118.249V183.57H118.289C118.359 183.381 118.485 183.228 118.667 183.11C118.849 182.993 119.055 182.934 119.284 182.934C119.327 182.934 119.38 182.935 119.445 182.936C119.51 182.938 119.559 182.94 119.592 182.944V183.54C119.572 183.535 119.526 183.528 119.455 183.518C119.385 183.506 119.312 183.501 119.234 183.501C119.048 183.501 118.882 183.54 118.737 183.617C118.592 183.694 118.478 183.8 118.394 183.936C118.311 184.07 118.269 184.223 118.269 184.395V186.812H117.683ZM122.187 182.993V183.491H120.208V182.993H122.187ZM120.785 182.079H121.372V185.718C121.372 185.884 121.396 186.008 121.444 186.091C121.493 186.172 121.556 186.227 121.633 186.255C121.711 186.281 121.793 186.295 121.879 186.295C121.943 186.295 121.996 186.291 122.038 186.285C122.079 186.276 122.112 186.27 122.137 186.265L122.257 186.792C122.217 186.807 122.161 186.822 122.09 186.837C122.019 186.853 121.928 186.861 121.819 186.861C121.653 186.861 121.491 186.826 121.332 186.754C121.174 186.683 121.043 186.575 120.939 186.429C120.836 186.283 120.785 186.099 120.785 185.877V182.079ZM124.629 186.891C124.261 186.891 123.944 186.81 123.677 186.648C123.412 186.484 123.207 186.255 123.063 185.962C122.921 185.667 122.849 185.323 122.849 184.932C122.849 184.541 122.921 184.197 123.063 183.898C123.207 183.598 123.408 183.365 123.665 183.197C123.923 183.028 124.225 182.944 124.57 182.944C124.768 182.944 124.965 182.977 125.159 183.043C125.353 183.109 125.529 183.217 125.688 183.366C125.847 183.514 125.974 183.709 126.069 183.953C126.163 184.197 126.21 184.497 126.21 184.853V185.101H123.267V184.594H125.614C125.614 184.379 125.571 184.187 125.484 184.018C125.4 183.849 125.279 183.715 125.121 183.617C124.966 183.52 124.782 183.471 124.57 183.471C124.336 183.471 124.134 183.529 123.963 183.645C123.794 183.759 123.664 183.908 123.573 184.092C123.482 184.276 123.436 184.473 123.436 184.684V185.022C123.436 185.31 123.486 185.555 123.585 185.755C123.686 185.954 123.826 186.106 124.005 186.21C124.184 186.313 124.392 186.364 124.629 186.364C124.783 186.364 124.923 186.343 125.047 186.3C125.173 186.255 125.281 186.189 125.372 186.101C125.464 186.011 125.534 185.9 125.584 185.768L126.151 185.927C126.091 186.119 125.991 186.288 125.85 186.434C125.709 186.578 125.535 186.691 125.328 186.772C125.121 186.851 124.888 186.891 124.629 186.891ZM128.544 186.891C128.226 186.891 127.945 186.811 127.702 186.65C127.458 186.488 127.267 186.259 127.13 185.964C126.992 185.667 126.924 185.317 126.924 184.912C126.924 184.511 126.992 184.163 127.13 183.868C127.267 183.573 127.459 183.346 127.704 183.185C127.949 183.024 128.233 182.944 128.554 182.944C128.803 182.944 128.999 182.985 129.143 183.068C129.289 183.149 129.4 183.242 129.477 183.346C129.554 183.449 129.615 183.534 129.658 183.6H129.708V181.721H130.294V186.812H129.728V186.225H129.658C129.615 186.295 129.554 186.382 129.474 186.488C129.395 186.593 129.281 186.687 129.134 186.769C128.986 186.851 128.79 186.891 128.544 186.891ZM128.624 186.364C128.859 186.364 129.058 186.303 129.221 186.18C129.383 186.056 129.506 185.884 129.591 185.666C129.675 185.445 129.718 185.191 129.718 184.903C129.718 184.618 129.676 184.368 129.593 184.154C129.511 183.939 129.388 183.772 129.225 183.652C129.063 183.531 128.863 183.471 128.624 183.471C128.375 183.471 128.168 183.535 128.002 183.662C127.838 183.788 127.715 183.96 127.632 184.177C127.551 184.392 127.51 184.634 127.51 184.903C127.51 185.174 127.552 185.421 127.635 185.643C127.719 185.864 127.843 186.039 128.007 186.17C128.173 186.3 128.379 186.364 128.624 186.364ZM132.226 181.721L132.176 185.38H131.599L131.55 181.721H132.226ZM131.888 186.851C131.765 186.851 131.66 186.808 131.572 186.72C131.484 186.632 131.44 186.527 131.44 186.404C131.44 186.281 131.484 186.176 131.572 186.088C131.66 186 131.765 185.957 131.888 185.957C132.01 185.957 132.116 186 132.203 186.088C132.291 186.176 132.335 186.281 132.335 186.404C132.335 186.485 132.314 186.56 132.273 186.628C132.233 186.696 132.179 186.75 132.111 186.792C132.045 186.832 131.971 186.851 131.888 186.851Z" fill="#A0A0A0"/>
<path d="M109.638 80.3865C100.681 80.3865 91.563 80.0323 83.0339 77.7194C74.6654 75.4586 66.9817 71.0724 60.1328 65.9987C55.6489 62.696 51.5716 60.0706 45.75 60.4665C40.0499 60.7703 34.6016 62.8525 30.2114 66.405C22.806 72.656 23.919 84.3559 26.8833 92.5761C31.3351 104.953 44.8832 113.528 56.398 119.133C69.6999 125.602 84.3181 129.353 98.9684 131.52C111.81 133.416 128.312 134.802 139.441 126.634C149.661 119.133 152.465 102.005 149.961 90.4403C149.354 87.0208 147.486 83.9348 144.707 81.7617C137.526 76.6567 126.814 80.0635 118.745 80.2407C115.748 80.3032 112.698 80.3761 109.638 80.3865Z" fill="#F2F2F2"/>
<g clip-path="url(#clip1_2002_50)">
<path d="M58.4128 87.8817L66.4054 84.8948L82.0307 108.941C82.5666 109.768 83.3842 110.386 84.3406 110.685C85.2969 110.985 86.331 110.947 87.2619 110.579L106.684 103.321C107.628 102.988 108.423 102.343 108.927 101.497C109.432 100.651 109.616 99.6598 109.445 98.6959L106.207 81.1802L72.2386 93.8745M91.7363 120.067C92.16 121.141 91.6088 122.347 90.5052 122.759C89.4017 123.171 88.1637 122.635 87.7401 121.56C87.3165 120.486 87.8677 119.281 88.9712 118.868C90.0747 118.456 91.3127 118.993 91.7363 120.067ZM113.716 111.853C114.139 112.927 113.588 114.133 112.485 114.545C111.381 114.957 110.143 114.421 109.72 113.346C109.296 112.272 109.847 111.067 110.951 110.654C112.054 110.242 113.292 110.779 113.716 111.853Z" stroke="#B3B3B3" stroke-width="4" stroke-linecap="round" stroke-linejoin="round"/>
</g>
<path d="M141.26 56.2595V60.7499" stroke="#CFCFCF" stroke-linecap="round" stroke-linejoin="round"/>
<path d="M139.119 58.3433H143.731" stroke="#CFCFCF" stroke-linecap="round" stroke-linejoin="round"/>
<path d="M72.77 50.0084V54.4988" stroke="#CFCFCF" stroke-linecap="round" stroke-linejoin="round"/>
<path d="M70.6296 52.0922H75.242" stroke="#CFCFCF" stroke-linecap="round" stroke-linejoin="round"/>
<path d="M32.1045 129.188V133.679" stroke="#CFCFCF" stroke-linecap="round" stroke-linejoin="round"/>
<path d="M29.9641 131.272H34.5765" stroke="#CFCFCF" stroke-linecap="round" stroke-linejoin="round"/>
<path d="M153.031 133.356V137.846" stroke="#CFCFCF" stroke-linecap="round" stroke-linejoin="round"/>
<path d="M150.891 135.44H155.503" stroke="#CFCFCF" stroke-linecap="round" stroke-linejoin="round"/>
<path d="M128.418 95.8495V100.34" stroke="#CFCFCF" stroke-linecap="round" stroke-linejoin="round"/>
<path d="M126.277 97.9332H130.89" stroke="#CFCFCF" stroke-linecap="round" stroke-linejoin="round"/>
</g>
<defs>
<clipPath id="clip0_2002_50">
<rect width="182" height="224.09" fill="white"/>
</clipPath>
<clipPath id="clip1_2002_50">
<rect width="51.1946" height="50.185" fill="white" transform="matrix(0.936725 -0.350065 0.366809 0.930296 55.6477 86.6831)"/>
</clipPath>
</defs>
</svg>
