<svg width="84" height="16" viewBox="0 0 84 16" fill="none" xmlns="http://www.w3.org/2000/svg">
<path d="M8.13068 3.61932C8.14583 3.0928 7.98485 2.68939 7.64773 2.40909C7.31439 2.12879 6.83523 1.98864 6.21023 1.98864C5.77083 1.98864 5.38258 2.05492 5.04545 2.1875C4.71212 2.31629 4.44318 2.49621 4.23864 2.72727C4.03409 2.95455 3.9072 3.21402 3.85795 3.50568C3.81629 3.74432 3.83712 3.95265 3.92045 4.13068C4.00379 4.30871 4.13068 4.46023 4.30114 4.58523C4.47538 4.71023 4.67235 4.81439 4.89205 4.89773C5.11553 4.98106 5.3428 5.05114 5.57386 5.10795L6.61932 5.38068C7.03599 5.48295 7.43371 5.62121 7.8125 5.79545C8.19129 5.96591 8.51894 6.18561 8.79545 6.45455C9.07576 6.7197 9.2803 7.03977 9.40909 7.41477C9.53788 7.78977 9.55871 8.22917 9.47159 8.73295C9.35795 9.41477 9.08333 10.0152 8.64773 10.5341C8.21591 11.0492 7.64773 11.4527 6.94318 11.7443C6.24242 12.0322 5.42614 12.1761 4.49432 12.1761C3.5928 12.1761 2.83144 12.036 2.21023 11.7557C1.58902 11.4716 1.13447 11.0606 0.846591 10.5227C0.5625 9.98485 0.471591 9.33144 0.573864 8.5625H2.64773C2.60606 8.9678 2.67235 9.30492 2.84659 9.57386C3.02462 9.8428 3.2803 10.0436 3.61364 10.1761C3.94697 10.3087 4.33333 10.375 4.77273 10.375C5.23106 10.375 5.64583 10.3068 6.01705 10.1705C6.38826 10.0303 6.69129 9.83712 6.92614 9.59091C7.16477 9.34091 7.31061 9.04924 7.36364 8.71591C7.41667 8.41667 7.37311 8.16667 7.23295 7.96591C7.0928 7.76515 6.875 7.59848 6.57955 7.46591C6.28788 7.32955 5.93939 7.20833 5.53409 7.10227L4.27273 6.76136C3.35985 6.51136 2.66667 6.13636 2.19318 5.63636C1.72348 5.13636 1.55682 4.4697 1.69318 3.63636C1.80682 2.94697 2.0928 2.34659 2.55114 1.83523C3.00947 1.32008 3.58333 0.920454 4.27273 0.636363C4.96212 0.348484 5.71591 0.204545 6.53409 0.204545C7.35985 0.204545 8.05871 0.348484 8.63068 0.636363C9.20644 0.924242 9.62689 1.32576 9.89205 1.84091C10.161 2.35227 10.25 2.94508 10.1591 3.61932H8.13068ZM13.6293 6.88636L12.7884 12H10.7259L12.6577 0.363636H14.6747L13.9474 4.75568H14.0554C14.3319 4.25947 14.7088 3.86932 15.1861 3.58523C15.6671 3.30114 16.2448 3.15909 16.919 3.15909C17.5175 3.15909 18.0213 3.28598 18.4304 3.53977C18.8395 3.79356 19.1274 4.16477 19.294 4.65341C19.4645 5.14205 19.4929 5.73864 19.3793 6.44318L18.4474 12H16.3849L17.2599 6.76136C17.3546 6.17424 17.277 5.7178 17.027 5.39205C16.7808 5.0625 16.3906 4.89773 15.8565 4.89773C15.4891 4.89773 15.1501 4.97727 14.8395 5.13636C14.5289 5.29167 14.2675 5.51705 14.0554 5.8125C13.8471 6.10795 13.705 6.46591 13.6293 6.88636ZM24.3622 12.1705C23.5024 12.1705 22.7865 11.9811 22.2145 11.6023C21.6463 11.2235 21.2467 10.6913 21.0156 10.0057C20.7846 9.32008 20.7429 8.52462 20.8906 7.61932C21.0384 6.72538 21.3338 5.94318 21.777 5.27273C22.224 4.60227 22.7865 4.08333 23.4645 3.71591C24.1463 3.3447 24.9096 3.15909 25.7543 3.15909C26.6141 3.15909 27.3281 3.35038 27.8963 3.73295C28.4645 4.11174 28.8641 4.64394 29.0952 5.32955C29.33 6.01515 29.3736 6.81439 29.2259 7.72727C29.0819 8.61742 28.7846 9.39583 28.3338 10.0625C27.8868 10.7292 27.3243 11.2481 26.6463 11.6193C25.9683 11.9867 25.2069 12.1705 24.3622 12.1705ZM24.5327 10.5227C25.0099 10.5227 25.4285 10.3939 25.7884 10.1364C26.152 9.875 26.4493 9.52462 26.6804 9.08523C26.9152 8.64205 27.0781 8.14962 27.169 7.60795C27.2524 7.08523 27.2543 6.61174 27.1747 6.1875C27.0952 5.75947 26.9247 5.42045 26.6634 5.17045C26.4058 4.91667 26.0478 4.78977 25.5895 4.78977C25.1122 4.78977 24.6899 4.92235 24.3224 5.1875C23.9588 5.44886 23.6615 5.80114 23.4304 6.24432C23.1993 6.68371 23.0402 7.17424 22.9531 7.71591C22.866 8.23864 22.8622 8.71212 22.9418 9.13636C23.0213 9.56061 23.1918 9.89773 23.4531 10.1477C23.7145 10.3977 24.0743 10.5227 24.5327 10.5227ZM29.7273 15.2727L31.7386 3.27273H33.7614L33.5284 4.71591H33.6477C33.7841 4.50379 33.9678 4.27841 34.1989 4.03977C34.4337 3.79735 34.7311 3.59091 35.0909 3.42045C35.4508 3.24621 35.8883 3.15909 36.4034 3.15909C37.0739 3.15909 37.6515 3.33144 38.1364 3.67614C38.6212 4.01705 38.9678 4.52273 39.1761 5.19318C39.3883 5.85985 39.4148 6.67803 39.2557 7.64773C39.0966 8.60606 38.803 9.42045 38.375 10.0909C37.947 10.7614 37.4337 11.2727 36.8352 11.625C36.2367 11.9773 35.5947 12.1534 34.9091 12.1534C34.4091 12.1534 34.0057 12.0701 33.6989 11.9034C33.3958 11.7367 33.1667 11.536 33.0114 11.3011C32.8561 11.0625 32.7405 10.8371 32.6648 10.625H32.5739L31.8011 15.2727H29.7273ZM33.0284 7.63636C32.9375 8.20076 32.9356 8.69508 33.0227 9.11932C33.1136 9.54356 33.2936 9.875 33.5625 10.1136C33.8314 10.3485 34.1837 10.4659 34.6193 10.4659C35.0739 10.4659 35.4716 10.3447 35.8125 10.1023C36.1572 9.85606 36.4432 9.52083 36.6705 9.09659C36.9015 8.66856 37.0644 8.18182 37.1591 7.63636C37.2462 7.0947 37.2462 6.61364 37.1591 6.19318C37.072 5.77273 36.8958 5.44318 36.6307 5.20455C36.3655 4.96591 36.0057 4.84659 35.5511 4.84659C35.108 4.84659 34.7121 4.96212 34.3636 5.19318C34.0189 5.42424 33.733 5.74811 33.5057 6.16477C33.2784 6.58144 33.1193 7.07197 33.0284 7.63636ZM42.9247 0.363636L44.4361 9.52273H44.5554L49.0952 0.363636H51.4134L45.3793 12H42.777L40.6122 0.363636H42.9247ZM53.8267 12.1705C52.9517 12.1705 52.2282 11.9886 51.6562 11.625C51.0843 11.2576 50.6828 10.7386 50.4517 10.0682C50.2244 9.39394 50.1866 8.60038 50.3381 7.6875C50.4858 6.78977 50.7869 6.00189 51.2415 5.32386C51.696 4.64205 52.2642 4.11174 52.946 3.73295C53.6316 3.35038 54.3892 3.15909 55.2188 3.15909C55.7566 3.15909 56.2509 3.24621 56.7017 3.42045C57.1525 3.59091 57.5331 3.85606 57.8438 4.21591C58.1544 4.57576 58.3684 5.03409 58.4858 5.59091C58.6032 6.14394 58.5975 6.80303 58.4688 7.56818L58.3722 8.19886H51.2131L51.4347 6.8125H56.6165C56.6847 6.41856 56.6619 6.06818 56.5483 5.76136C56.4347 5.45076 56.2453 5.20644 55.9801 5.02841C55.715 4.85038 55.3835 4.76136 54.9858 4.76136C54.5805 4.76136 54.2017 4.86553 53.8494 5.07386C53.5009 5.27841 53.2074 5.54356 52.9688 5.86932C52.7301 6.19508 52.5786 6.53788 52.5142 6.89773L52.2812 8.22727C52.1979 8.77273 52.2169 9.2178 52.3381 9.5625C52.4593 9.9072 52.6714 10.161 52.9744 10.3239C53.2775 10.4867 53.66 10.5682 54.1222 10.5682C54.4252 10.5682 54.7055 10.5265 54.9631 10.4432C55.2206 10.3598 55.4498 10.2348 55.6506 10.0682C55.8551 9.89773 56.0256 9.68939 56.1619 9.44318L58.0426 9.65909C57.8343 10.1667 57.5294 10.6098 57.1278 10.9886C56.7263 11.3636 56.2453 11.6553 55.6847 11.8636C55.1278 12.0682 54.5085 12.1705 53.8267 12.1705ZM59.4858 12L60.9403 3.27273H62.9347L62.6903 4.72727H62.7812C63.0199 4.22348 63.357 3.83523 63.7926 3.5625C64.232 3.28598 64.7017 3.14773 65.2017 3.14773C65.3191 3.14773 65.446 3.15341 65.5824 3.16477C65.7188 3.17235 65.8362 3.18561 65.9347 3.20455L65.6165 5.09659C65.5294 5.06629 65.393 5.03977 65.2074 5.01705C65.0256 4.99053 64.8456 4.97727 64.6676 4.97727C64.2926 4.97727 63.9441 5.05871 63.6222 5.22159C63.304 5.38068 63.035 5.60227 62.8153 5.88636C62.5956 6.17045 62.4536 6.49811 62.3892 6.86932L61.5426 12H59.4858ZM73.8054 5.57955L71.9134 5.78409C71.8944 5.59091 71.8357 5.41098 71.7372 5.24432C71.6387 5.07765 71.491 4.94508 71.294 4.84659C71.1009 4.74432 70.8509 4.69318 70.544 4.69318C70.0971 4.69318 69.705 4.79356 69.3679 4.99432C69.0308 5.19508 68.8395 5.45265 68.794 5.76705C68.7524 6.00189 68.8092 6.19318 68.9645 6.34091C69.1198 6.48864 69.4077 6.61364 69.8281 6.71591L71.2713 7.03409C72.0668 7.21212 72.6387 7.5 72.9872 7.89773C73.3395 8.29545 73.4626 8.81629 73.3565 9.46023C73.2656 9.99811 73.0308 10.4716 72.652 10.8807C72.2732 11.286 71.7884 11.6023 71.1974 11.8295C70.6103 12.0568 69.9588 12.1705 69.2429 12.1705C68.1558 12.1705 67.3187 11.9451 66.7315 11.4943C66.1482 11.0398 65.8584 10.4148 65.8622 9.61932L67.8849 9.42614C67.9077 9.82008 68.0459 10.1174 68.2997 10.3182C68.5535 10.5152 68.9058 10.6155 69.3565 10.6193C69.8641 10.6231 70.2921 10.517 70.6406 10.3011C70.9929 10.0814 71.1918 9.81439 71.2372 9.5C71.2751 9.26515 71.2164 9.07386 71.0611 8.92614C70.9096 8.77841 70.6387 8.66098 70.2486 8.57386L68.8168 8.26136C68.0062 8.08333 67.4285 7.7822 67.0838 7.35795C66.7429 6.92992 66.6274 6.39015 66.7372 5.73864C66.8281 5.20833 67.0497 4.75189 67.402 4.36932C67.758 3.98295 68.2145 3.68561 68.7713 3.47727C69.3281 3.26515 69.9512 3.15909 70.6406 3.15909C71.6785 3.15909 72.4607 3.37689 72.9872 3.8125C73.5137 4.24811 73.7865 4.83712 73.8054 5.57955ZM78.4673 12.1705C77.5923 12.1705 76.8688 11.9886 76.2969 11.625C75.7249 11.2576 75.3234 10.7386 75.0923 10.0682C74.8651 9.39394 74.8272 8.60038 74.9787 7.6875C75.1264 6.78977 75.4276 6.00189 75.8821 5.32386C76.3366 4.64205 76.9048 4.11174 77.5866 3.73295C78.2723 3.35038 79.0298 3.15909 79.8594 3.15909C80.3973 3.15909 80.8916 3.24621 81.3423 3.42045C81.7931 3.59091 82.1738 3.85606 82.4844 4.21591C82.795 4.57576 83.009 5.03409 83.1264 5.59091C83.2438 6.14394 83.2382 6.80303 83.1094 7.56818L83.0128 8.19886H75.8537L76.0753 6.8125H81.2571C81.3253 6.41856 81.3026 6.06818 81.1889 5.76136C81.0753 5.45076 80.8859 5.20644 80.6207 5.02841C80.3556 4.85038 80.0241 4.76136 79.6264 4.76136C79.2211 4.76136 78.8423 4.86553 78.4901 5.07386C78.1416 5.27841 77.848 5.54356 77.6094 5.86932C77.3707 6.19508 77.2192 6.53788 77.1548 6.89773L76.9219 8.22727C76.8385 8.77273 76.8575 9.2178 76.9787 9.5625C77.0999 9.9072 77.312 10.161 77.6151 10.3239C77.9181 10.4867 78.3007 10.5682 78.7628 10.5682C79.0658 10.5682 79.3461 10.5265 79.6037 10.4432C79.8613 10.3598 80.0904 10.2348 80.2912 10.0682C80.4957 9.89773 80.6662 9.68939 80.8026 9.44318L82.6832 9.65909C82.4749 10.1667 82.17 10.6098 81.7685 10.9886C81.367 11.3636 80.8859 11.6553 80.3253 11.8636C79.7685 12.0682 79.1491 12.1705 78.4673 12.1705Z" fill="url(#paint0_linear_603_2557)"/>
<defs>
<linearGradient id="paint0_linear_603_2557" x1="0" y1="6" x2="86" y2="6" gradientUnits="userSpaceOnUse">
<stop stop-color="#4C1C3B"/>
<stop offset="1" stop-color="#7C7C7C"/>
</linearGradient>
</defs>
</svg>
